<svg width="145" height="157" viewBox="0 0 145 157" fill="none" xmlns="http://www.w3.org/2000/svg">
    <rect x="0.5" width="144" height="150.05" fill="#FEFEFE" fill-opacity="0.01" />
    <rect x="25.9111" y="50.2185" width="98.0168" height="91.9664" fill="#5D4634" />
    <path d="M74.3145 21.7815L123.928 50.2185H25.9111L74.3145 21.7815Z" fill="#472D1C" />
    <g clip-path="url(#clip0_2614_1149)">
        <rect x="35.5918" y="50.2185" width="79.8655" height="37.5126" fill="#FFA41B" />
        <path
            d="M43.5247 45.1093L51.4426 49.6807V58.8235L43.5247 63.395L35.6067 58.8235V49.6807L43.5247 45.1093Z"
            fill="#D87C0E" />
        <path
            d="M51.5247 58.8234L59.4426 63.3948V72.5376L51.5247 77.1091L43.6067 72.5376V63.3948L51.5247 58.8234Z"
            fill="#FFB45B" />
        <path
            d="M67.5244 58.8234L75.4424 63.3948V72.5376L67.5244 77.1091L59.6065 72.5376V63.3948L67.5244 58.8234Z"
            fill="#D07E1D" />
        <path
            d="M83.5247 58.8234L91.4426 63.3948V72.5376L83.5247 77.1091L75.6067 72.5376V63.3948L83.5247 58.8234Z"
            fill="#FFB45B" />
        <path
            d="M99.5247 58.8234L107.443 63.3948V72.5376L99.5247 77.1091L91.6067 72.5376V63.3948L99.5247 58.8234Z"
            fill="#D07E1D" />
        <path
            d="M59.5244 45.1091L67.4424 49.6806V58.8234L59.5244 63.3948L51.6065 58.8234V49.6806L59.5244 45.1091Z"
            fill="#EF9D26" />
        <path
            d="M91.5247 45.1091L99.4426 49.6806V58.8234L91.5247 63.3948L83.6067 58.8234V49.6806L91.5247 45.1091Z"
            fill="#EF9D26" />
        <path
            d="M107.525 45.1091L115.443 49.6806V58.8234L107.525 63.3948L99.6067 58.8234V49.6806L107.525 45.1091Z"
            fill="#D87C0E" />
        <path
            d="M75.5244 45.1091L83.4424 49.6806V58.8234L75.5244 63.3948L67.6065 58.8234V49.6806L75.5244 45.1091Z"
            fill="#D87C0E" />
    </g>
    <rect x="35.5918" y="87.7311" width="79.8655" height="30.2521" fill="#3F2413" />
    <rect x="25.9111" y="117.983" width="98.0168" height="24.2017" fill="#543926" />
    <path d="M16 53.5L74.3146 16.9412L130 51" stroke="#634430" stroke-width="9"
        stroke-linecap="round" />
    <path
        d="M63.6931 83.8149C56.3558 85.346 59.3102 93.3889 61.7046 97.219L67.737 96.6439C69.4462 91.7296 71.0304 82.2839 63.6931 83.8149Z"
        fill="#D5EFE9" />
    <path
        d="M59.0369 85.1364C51.6996 86.6674 54.654 94.7103 57.0483 98.5404L63.0807 97.9653C64.79 93.0511 66.3741 83.6053 59.0369 85.1364Z"
        fill="#AFD6D5" />
    <rect x="52.5276" y="96.6976" width="18.3437" height="9.6546" rx="4.8273"
        transform="rotate(-4.92486 52.5276 96.6976)" fill="#68636A" />
    <mask id="mask0_2614_1149" style="mask-type:alpha" maskUnits="userSpaceOnUse" x="52" y="95"
        width="20" height="11">
        <rect x="52.5293" y="96.697" width="18.3437" height="9.6546" rx="4.8273"
            transform="rotate(-4.92486 52.5293 96.697)" fill="#68636A" />
    </mask>
    <g mask="url(#mask0_2614_1149)">
        <ellipse cx="66.4269" cy="100.662" rx="4.8273" ry="5.79276"
            transform="rotate(-0.755308 66.4269 100.662)" fill="#FFA41B" />
    </g>
    <circle cx="70.0077" cy="97.1297" r="0.96546" transform="rotate(-4.92486 70.0077 97.1297)"
        fill="#474747" />
    <circle cx="67.3775" cy="99.6847" r="0.96546" transform="rotate(-0.755308 67.3775 99.6847)"
        fill="#474747" />
    <path
        d="M125.407 124.92C118.07 126.451 121.024 134.494 123.419 138.324L129.451 137.749C131.16 132.834 132.745 123.389 125.407 124.92Z"
        fill="#D5EFE9" />
    <path
        d="M120.751 126.241C113.414 127.772 116.368 135.815 118.762 139.645L124.795 139.07C126.504 134.156 128.088 124.71 120.751 126.241Z"
        fill="#AFD6D5" />
    <rect x="114.242" y="137.802" width="18.3437" height="9.6546" rx="4.8273"
        transform="rotate(-4.92486 114.242 137.802)" fill="#68636A" />
    <mask id="mask1_2614_1149" style="mask-type:alpha" maskUnits="userSpaceOnUse" x="114" y="136"
        width="19" height="12">
        <rect x="114.243" y="137.802" width="18.3437" height="9.6546" rx="4.8273"
            transform="rotate(-4.92486 114.243 137.802)" fill="#68636A" />
    </mask>
    <g mask="url(#mask1_2614_1149)">
        <ellipse cx="128.141" cy="141.767" rx="4.8273" ry="5.79276"
            transform="rotate(-0.755308 128.141 141.767)" fill="#FFA41B" />
    </g>
    <circle cx="131.722" cy="138.234" r="0.96546" transform="rotate(-4.92486 131.722 138.234)"
        fill="#474747" />
    <circle cx="129.092" cy="140.789" r="0.96546" transform="rotate(-0.755308 129.092 140.789)"
        fill="#474747" />
    <rect x="63.4238" y="117.983" width="22.9916" height="7.2605" fill="#F9B132" />
    <path
        d="M21.3406 116.449C14.0033 117.98 16.9577 126.023 19.3521 129.853L25.3845 129.278C27.0937 124.364 28.6779 114.918 21.3406 116.449Z"
        fill="#D5EFE9" />
    <path
        d="M16.6843 117.771C9.34706 119.302 12.3015 127.345 14.6958 131.175L20.7282 130.6C22.4374 125.685 24.0216 116.24 16.6843 117.771Z"
        fill="#AFD6D5" />
    <rect x="10.1753" y="129.332" width="18.3437" height="9.6546" rx="4.8273"
        transform="rotate(-4.92486 10.1753 129.332)" fill="#68636A" />
    <mask id="mask2_2614_1149" style="mask-type:alpha" maskUnits="userSpaceOnUse" x="10" y="128"
        width="19" height="11">
        <rect x="10.1768" y="129.331" width="18.3437" height="9.6546" rx="4.8273"
            transform="rotate(-4.92486 10.1768 129.331)" fill="#68636A" />
    </mask>
    <g mask="url(#mask2_2614_1149)">
        <ellipse cx="24.0744" cy="133.297" rx="4.8273" ry="5.79276"
            transform="rotate(-0.755308 24.0744 133.297)" fill="#FFA41B" />
    </g>
    <circle cx="27.6551" cy="129.764" r="0.96546" transform="rotate(-4.92486 27.6551 129.764)"
        fill="#474747" />
    <circle cx="25.0252" cy="132.319" r="0.96546" transform="rotate(-0.755308 25.0252 132.319)"
        fill="#474747" />
    <defs>
        <clipPath id="clip0_2614_1149">
            <rect width="79.8655" height="37.5126" fill="white"
                transform="translate(35.5918 50.2185)" />
        </clipPath>
    </defs>
</svg>