<svg width="24" height="25" viewBox="0 0 24 25" fill="none" xmlns="http://www.w3.org/2000/svg">
    <path
        d="M9 12.9553L11.25 15.2053L15 9.95529M21 12.2053C21 13.4733 20.37 14.5953 19.407 15.2733C19.5108 15.8661 19.4701 16.4751 19.2886 17.0488C19.107 17.6226 18.7899 18.1441 18.364 18.5693C17.9388 18.9952 17.4173 19.3123 16.8436 19.4939C16.2698 19.6754 15.6608 19.716 15.068 19.6123C14.7222 20.1048 14.2629 20.5067 13.7288 20.784C13.1948 21.0613 12.6017 21.2058 12 21.2053C10.732 21.2053 9.61 20.5753 8.932 19.6123C8.33923 19.716 7.73021 19.6753 7.15649 19.4937C6.58276 19.3122 6.06122 18.9951 5.636 18.5693C5.21013 18.1441 4.89298 17.6226 4.71142 17.0488C4.52987 16.4751 4.48925 15.8661 4.593 15.2733C4.10052 14.9275 3.69862 14.4681 3.42133 13.9341C3.14403 13.4 2.99951 12.807 3 12.2053C3 10.9373 3.63 9.81529 4.593 9.13729C4.48925 8.54452 4.52987 7.93548 4.71142 7.36174C4.89298 6.788 5.21013 6.26646 5.636 5.84129C6.06122 5.41549 6.58276 5.09839 7.15649 4.91684C7.73021 4.73528 8.33923 4.69462 8.932 4.79829C9.27785 4.30588 9.73722 3.90402 10.2713 3.62673C10.8053 3.34944 11.3983 3.20489 12 3.20529C13.268 3.20529 14.39 3.83529 15.068 4.79829C15.6608 4.69462 16.2698 4.73528 16.8435 4.91684C17.4172 5.09839 17.9388 5.41549 18.364 5.84129C18.7898 6.26651 19.1069 6.78805 19.2885 7.36178C19.47 7.9355 19.5107 8.54452 19.407 9.13729C19.8995 9.48308 20.3014 9.94244 20.5787 10.4765C20.856 11.0105 21.0005 11.6035 21 12.2053Z"
        stroke="#FFA41B" stroke-width="1.5" stroke-linecap="round" stroke-linejoin="round" />
</svg>
    