<svg width="18" height="18" viewBox="0 0 18 18" fill="none" xmlns="http://www.w3.org/2000/svg">
<path fill-rule="evenodd" clip-rule="evenodd" d="M9.27162 0.458435C4.66215 0.458435 0.925781 4.1948 0.925781 8.80428C0.925781 13.4137 4.66215 17.1501 9.27162 17.1501C13.8811 17.1501 17.6175 13.4137 17.6175 8.80428C17.6175 4.1948 13.8811 0.458435 9.27162 0.458435ZM9.91361 3.66837C9.91361 3.49811 9.84597 3.33482 9.72558 3.21442C9.60518 3.09402 9.44189 3.02639 9.27162 3.02639C9.10136 3.02639 8.93807 3.09402 8.81767 3.21442C8.69727 3.33482 8.62963 3.49811 8.62963 3.66837V8.80428C8.62963 9.15865 8.91725 9.44626 9.27162 9.44626H13.1235C13.2938 9.44626 13.4571 9.37863 13.5775 9.25823C13.6979 9.13783 13.7655 8.97454 13.7655 8.80428C13.7655 8.63401 13.6979 8.47072 13.5775 8.35032C13.4571 8.22993 13.2938 8.16229 13.1235 8.16229H9.91361V3.66837Z" fill="#505050"/>
</svg>
