<svg width="18" height="19" viewBox="0 0 18 19" fill="none" xmlns="http://www.w3.org/2000/svg">
<path d="M16.3125 5.26514V13.1401C16.3125 13.5877 16.1347 14.0169 15.8182 14.3334C15.5018 14.6498 15.0726 14.8276 14.625 14.8276H3.375C2.92745 14.8276 2.49822 14.6498 2.18176 14.3334C1.86529 14.0169 1.6875 13.5877 1.6875 13.1401V5.26514M16.3125 5.26514C16.3125 4.81758 16.1347 4.38836 15.8182 4.07189C15.5018 3.75543 15.0726 3.57764 14.625 3.57764H3.375C2.92745 3.57764 2.49822 3.75543 2.18176 4.07189C1.86529 4.38836 1.6875 4.81758 1.6875 5.26514M16.3125 5.26514V5.44739C16.3125 5.7355 16.2388 6.01882 16.0983 6.27036C15.9578 6.5219 15.7553 6.73329 15.51 6.88439L9.885 10.3456C9.61891 10.5095 9.31252 10.5963 9 10.5963C8.68748 10.5963 8.38109 10.5095 8.115 10.3456L2.49 6.88514C2.24469 6.73404 2.04215 6.52265 1.90168 6.27111C1.7612 6.01957 1.68747 5.73625 1.6875 5.44814V5.26514" stroke="#3F3F3F" stroke-width="1.5" stroke-linecap="round" stroke-linejoin="round"/>
</svg>
