<svg width="235" height="189" viewBox="0 0 235 189" fill="none" xmlns="http://www.w3.org/2000/svg">
<path d="M33.5051 82.3734C-8.50677 131.295 35.7919 170.734 75.7716 147.503M173.016 115.632C223.8 115.632 244.329 37.2926 173.016 28.6497" stroke="#63180D" stroke-opacity="0.11" stroke-width="1.79726" stroke-dasharray="3.59 3.59"/>
<path d="M158.621 13.6491C164.756 14.4996 162.771 21.2967 161.012 24.5889L156.006 24.4533C154.321 20.4975 152.485 12.7986 158.621 13.6491Z" fill="#D5EFE9"/>
<path d="M162.533 14.4766C168.668 15.3271 166.684 22.1242 164.924 25.4164L159.919 25.2808C158.234 21.325 156.397 13.6261 162.533 14.4766Z" fill="#AFD6D5"/>
<rect width="15.1591" height="7.97845" rx="3.98923" transform="matrix(-0.999838 -0.0179881 -0.0179881 0.999838 169.567 23.8677)" fill="#68636A"/>
<mask id="mask0_2459_1644" style="mask-type:alpha" maskUnits="userSpaceOnUse" x="154" y="23" width="16" height="9">
<rect width="15.1591" height="7.97845" rx="3.98923" transform="matrix(-0.999838 -0.0179881 -0.0179881 0.999838 169.566 23.8673)" fill="#68636A"/>
</mask>
<g mask="url(#mask0_2459_1644)">
<ellipse cx="3.98923" cy="4.78707" rx="3.98923" ry="4.78707" transform="matrix(-0.9985 0.054756 0.054756 0.9985 162.052 22.9189)" fill="#FFA41B"/>
</g>
<circle cx="0.797845" cy="0.797845" r="0.797845" transform="matrix(-0.999838 -0.0179881 -0.0179881 0.999838 155.992 24.4208)" fill="#474747"/>
<circle cx="0.797845" cy="0.797845" r="0.797845" transform="matrix(-0.9985 0.054756 0.054756 0.9985 158.245 26.322)" fill="#474747"/>
<path d="M32.8881 59.7624C29.2453 64.7719 35.518 68.0569 39.1097 69.0732L42.4841 65.3731C40.8033 61.4155 36.531 54.7528 32.8881 59.7624Z" fill="#D5EFE9"/>
<path d="M30.7705 63.1558C27.1276 68.1654 33.4003 71.4503 36.9921 72.4666L40.3665 68.7665C38.6856 64.809 34.4133 58.1462 30.7705 63.1558Z" fill="#AFD6D5"/>
<rect x="32.6567" y="74.7367" width="15.1591" height="7.97845" rx="3.98923" transform="rotate(-47.1147 32.6567 74.7367)" fill="#68636A"/>
<mask id="mask1_2459_1644" style="mask-type:alpha" maskUnits="userSpaceOnUse" x="34" y="65" width="14" height="14">
<rect x="32.6572" y="74.7356" width="15.1591" height="7.97845" rx="3.98923" transform="rotate(-47.1147 32.6572 74.7356)" fill="#68636A"/>
</mask>
<g mask="url(#mask1_2459_1644)">
<ellipse cx="43.3671" cy="69.4504" rx="3.98923" ry="4.78707" transform="rotate(-42.9451 43.3671 69.4504)" fill="#FFA41B"/>
</g>
<circle cx="43.5992" cy="65.3" r="0.797845" transform="rotate(-47.1147 43.5992 65.3)" fill="#474747"/>
<circle cx="43.4069" cy="68.3242" r="0.797845" transform="rotate(-42.9451 43.4069 68.3242)" fill="#474747"/>
<path d="M54.8935 51.292H172.585V145.184C172.585 146.417 171.585 147.416 170.353 147.416H57.1253C55.8927 147.416 54.8935 146.417 54.8935 145.184V51.292Z" stroke="#63180D" stroke-width="2.72552"/>
<rect x="42.8154" y="48.1525" width="141.545" height="4.32198" rx="2.16099" fill="#63180D"/>
<rect x="55.3286" y="51.7263" width="116.822" height="95.2549" rx="3.59452" fill="#FFC553"/>
<line x1="55.7817" y1="57.4322" x2="173.478" y2="57.4322" stroke="#64190D" stroke-width="1.79726"/>
<line x1="55.7817" y1="68.7531" x2="173.478" y2="68.7531" stroke="#64190D" stroke-width="1.79726"/>
<line x1="55.7817" y1="80.074" x2="173.478" y2="80.074" stroke="#64190D" stroke-width="1.79726"/>
<line x1="55.7817" y1="91.3941" x2="173.478" y2="91.3941" stroke="#64190D" stroke-width="1.79726"/>
<line x1="55.7817" y1="102.717" x2="173.478" y2="102.717" stroke="#64190D" stroke-width="1.79726"/>
<line x1="55.7817" y1="114.037" x2="173.478" y2="114.037" stroke="#64190D" stroke-width="1.79726"/>
<line x1="55.7817" y1="125.358" x2="173.478" y2="125.358" stroke="#64190D" stroke-width="1.79726"/>
<line x1="55.7817" y1="136.679" x2="173.478" y2="136.679" stroke="#64190D" stroke-width="1.79726"/>
<line x1="65.9159" y1="148.266" x2="73.8444" y2="51.6551" stroke="#64190D" stroke-width="1.79726"/>
<line x1="87.9005" y1="146.869" x2="85.3229" y2="49.5562" stroke="#64190D" stroke-width="1.79726"/>
<line x1="102.278" y1="148.899" x2="102.278" y2="51.7283" stroke="#64190D" stroke-width="1.79726"/>
<line x1="111.757" y1="148.899" x2="111.757" y2="51.7283" stroke="#64190D" stroke-width="1.79726"/>
<line x1="140.196" y1="148.834" x2="147.374" y2="49.9236" stroke="#64190D" stroke-width="1.79726"/>
<line x1="121.238" y1="148.83" x2="128.74" y2="50.7614" stroke="#64190D" stroke-width="1.79726"/>
<line x1="154.236" y1="147.813" x2="159.298" y2="50.4066" stroke="#64190D" stroke-width="1.79726"/>
<line x1="168.63" y1="148.899" x2="168.63" y2="51.7283" stroke="#64190D" stroke-width="1.79726"/>
<path d="M173.587 161.783C174.701 164.23 176.149 165.907 175.966 167.577C175.746 169.581 172.583 172.122 171.197 167.939C170.156 164.798 174.03 160.518 173.587 161.783Z" fill="#FFB42E"/>
<path d="M81.0625 140.373C76.1381 144.13 81.2081 149.073 84.3586 151.075L88.6509 148.495C88.1733 144.222 85.9869 136.615 81.0625 140.373Z" fill="#D5EFE9"/>
<path d="M78.0625 143.017C73.1381 146.774 78.2081 151.717 81.3586 153.719L85.6509 151.14C85.1733 146.867 82.9869 139.26 78.0625 143.017Z" fill="#AFD6D5"/>
<rect x="76.5547" y="154.653" width="15.1591" height="7.97845" rx="3.98923" transform="rotate(-30.4811 76.5547 154.653)" fill="#68636A"/>
<mask id="mask2_2459_1644" style="mask-type:alpha" maskUnits="userSpaceOnUse" x="78" y="148" width="15" height="13">
<rect x="76.5557" y="154.653" width="15.1591" height="7.97845" rx="3.98923" transform="rotate(-30.4811 76.5557 154.653)" fill="#68636A"/>
</mask>
<g mask="url(#mask2_2459_1644)">
<ellipse cx="88.3296" cy="152.655" rx="3.98923" ry="4.78707" transform="rotate(-26.3115 88.3296 152.655)" fill="#FFA41B"/>
</g>
<circle cx="89.7402" cy="148.744" r="0.797845" transform="rotate(-30.4811 89.7402 148.744)" fill="#474747"/>
<circle cx="88.6899" cy="151.587" r="0.797845" transform="rotate(-26.3115 88.6899 151.587)" fill="#474747"/>
<path d="M136.455 131.6C125.65 136.462 121.559 145.92 122.261 148.562C122.599 148.615 151.586 149.102 152.514 149.102C153.675 149.102 154.753 148.021 155.833 151.803C156.757 155.036 159.534 165.791 160.695 165.85C166.098 166.123 160.618 150.843 160.618 149.642C160.618 148.442 161.776 149.102 162.316 150.723C162.856 152.343 165.009 160.347 166.677 160.987C168.345 161.628 167.185 148.53 167.185 147.169C167.185 145.809 168.128 144.848 168.418 146.929C168.853 150.051 172.041 165.85 173.121 152.884C174.202 139.918 175.961 140.243 174.273 133.22C173.958 131.913 171.571 128.357 166.677 132.362C161.782 136.368 147.26 126.737 136.455 131.6Z" fill="#FFB42E"/>
<circle cx="149.35" cy="133.975" r="0.540248" fill="#FFC660"/>
<path d="M171.963 167.428C172.504 168.259 172.758 169.554 174.124 168.924C175.205 168.425 175.205 166.93 175.205 166.93" stroke="#FFC660" stroke-width="0.864396" stroke-linecap="round"/>
<path d="M158.535 157.205C159.075 159.186 160.155 162.068 160.696 163.148" stroke="#FFC660" stroke-width="1.0805" stroke-linecap="round"/>
<path d="M164.477 152.883C164.477 155.044 165.774 157.961 166.638 158.826" stroke="#FFC660" stroke-width="1.0805" stroke-linecap="round"/>
<path d="M169.879 150.722C170.42 152.883 170.96 155.044 171.5 156.125" stroke="#FFC660" stroke-width="1.0805" stroke-linecap="round"/>
<path d="M127.2 142.855C130.982 136.913 135.412 130.343 146.649 132.936" stroke="#FFC660" stroke-width="1.0805" stroke-linecap="round"/>
<path d="M141.571 123.067C136.646 126.824 141.716 131.767 144.867 133.769L149.159 131.19C148.682 126.917 146.495 119.31 141.571 123.067Z" fill="#D5EFE9"/>
<path d="M138.571 125.711C133.646 129.469 138.716 134.412 141.867 136.414L146.159 133.834C145.682 129.561 143.495 121.954 138.571 125.711Z" fill="#AFD6D5"/>
<rect x="137.063" y="137.348" width="15.1591" height="7.97845" rx="3.98923" transform="rotate(-30.4811 137.063 137.348)" fill="#68636A"/>
<mask id="mask3_2459_1644" style="mask-type:alpha" maskUnits="userSpaceOnUse" x="138" y="131" width="15" height="12">
<rect x="137.064" y="137.348" width="15.1591" height="7.97845" rx="3.98923" transform="rotate(-30.4811 137.064 137.348)" fill="#68636A"/>
</mask>
<g mask="url(#mask3_2459_1644)">
<ellipse cx="148.838" cy="135.351" rx="3.98923" ry="4.78707" transform="rotate(-26.3115 148.838 135.351)" fill="#FFA41B"/>
</g>
<circle cx="150.249" cy="131.438" r="0.797845" transform="rotate(-30.4811 150.249 131.438)" fill="#474747"/>
<circle cx="149.199" cy="134.282" r="0.797845" transform="rotate(-26.3115 149.199 134.282)" fill="#474747"/>
</svg>
