<svg width="18" height="19" viewBox="0 0 18 19" fill="none" xmlns="http://www.w3.org/2000/svg">
<path d="M11.8125 4.64017C12.4092 4.64017 12.9815 4.87722 13.4035 5.29918C13.8254 5.72113 14.0625 6.29343 14.0625 6.89017M16.3125 6.89017C16.3126 7.5465 16.1691 8.19491 15.8921 8.78994C15.6151 9.38496 15.2113 9.9122 14.7091 10.3347C14.2068 10.7571 13.6181 11.0646 12.9845 11.2355C12.3508 11.4065 11.6874 11.4367 11.0407 11.3242C10.6185 11.2514 10.1715 11.3437 9.8685 11.6467L7.875 13.6402H6.1875V15.3277H4.5V17.0152H1.6875V14.9017C1.6875 14.4539 1.86525 14.0242 2.18175 13.7084L7.056 8.83417C7.359 8.53117 7.45125 8.08417 7.3785 7.66192C7.27215 7.04779 7.29453 6.41827 7.44422 5.81325C7.59392 5.20822 7.86766 4.64089 8.24811 4.14721C8.62855 3.65353 9.1074 3.24426 9.65431 2.94534C10.2012 2.64643 10.8043 2.46438 11.4252 2.41074C12.0462 2.3571 12.6715 2.43304 13.2616 2.63374C13.8516 2.83444 14.3936 3.15553 14.853 3.57665C15.3125 3.99778 15.6795 4.50976 15.9307 5.08015C16.182 5.65054 16.312 6.2669 16.3125 6.89017Z" stroke="#3F3F3F" stroke-width="1.5" stroke-linecap="round" stroke-linejoin="round"/>
</svg>
