<svg width="19" height="20" viewBox="0 0 19 20" fill="none" xmlns="http://www.w3.org/2000/svg">
<path d="M11.5 7.20264V3.45264C11.5 2.8559 11.2629 2.2836 10.841 1.86165C10.419 1.43969 9.84674 1.20264 9.25 1.20264H3.25C2.65326 1.20264 2.08097 1.43969 1.65901 1.86165C1.23705 2.2836 1 2.8559 1 3.45264V16.9526C1 17.5494 1.23705 18.1217 1.65901 18.5436C2.08097 18.9656 2.65326 19.2026 3.25 19.2026H9.25C9.84674 19.2026 10.419 18.9656 10.841 18.5436C11.2629 18.1217 11.5 17.5494 11.5 16.9526V13.2026M7.75 7.20264L4.75 10.2026M4.75 10.2026L7.75 13.2026M4.75 10.2026H17.5" stroke="#C82828" stroke-width="1.5" stroke-linecap="round" stroke-linejoin="round"/>
</svg>
