<svg width="20" height="20" viewBox="0 0 20 20" fill="none" xmlns="http://www.w3.org/2000/svg">
<path fill-rule="evenodd" clip-rule="evenodd" d="M9.47055 18.4067L9.52799 18.4395L9.55097 18.4527C9.64209 18.5019 9.74405 18.5277 9.84764 18.5277C9.95123 18.5277 10.0532 18.5019 10.1443 18.4527L10.1673 18.4404L10.2255 18.4067C10.5465 18.2164 10.8597 18.0132 11.1644 17.7978C11.9531 17.241 12.69 16.6142 13.3662 15.925C14.9616 14.2919 16.6185 11.8382 16.6185 8.68112C16.6185 6.88549 15.9051 5.16341 14.6355 3.89371C13.3658 2.62401 11.6437 1.91071 9.84805 1.91071C8.05242 1.91071 6.33034 2.62401 5.06064 3.89371C3.79095 5.16341 3.07764 6.88549 3.07764 8.68112C3.07764 11.8374 4.73536 14.2919 6.3299 15.925C7.00582 16.6141 7.74247 17.2409 8.5309 17.7978C8.83582 18.0133 9.14929 18.2164 9.47055 18.4067ZM9.84805 11.1431C10.501 11.1431 11.1272 10.8837 11.5889 10.422C12.0506 9.96028 12.31 9.33407 12.31 8.68112C12.31 8.02816 12.0506 7.40195 11.5889 6.94024C11.1272 6.47853 10.501 6.21915 9.84805 6.21915C9.19509 6.21915 8.56888 6.47853 8.10717 6.94024C7.64546 7.40195 7.38608 8.02816 7.38608 8.68112C7.38608 9.33407 7.64546 9.96028 8.10717 10.422C8.56888 10.8837 9.19509 11.1431 9.84805 11.1431Z" fill="#7B7B7B"/>
</svg>
