
<svg width="123" height="87" viewBox="0 0 123 87" fill="none" xmlns="http://www.w3.org/2000/svg">
<path d="M97.6465 86.1733L110.151 75.5715L122.129 80.4647L109.064 7.61142L97.6465 86.1733Z" fill="#FFA41B"/>
<path d="M109.607 7.33957H21.8028L9.8418 84.8141L97.9181 86.4451L109.607 7.33957Z" fill="#FFC660"/>
<path d="M16.9097 64.698C22.3465 57.9564 26.2429 23.6501 27.5115 7.33972H104.17C102.449 18.2133 98.7336 43.4945 97.6463 57.6302C96.2871 75.2998 86.7727 76.1153 81.3359 78.5619C76.9864 80.5192 25.8804 79.3774 0.871094 78.5619C3.95195 76.7496 11.4729 71.4397 16.9097 64.698Z" fill="#FFEBCD"/>
<rect x="47.084" y="15.7666" width="35.3393" height="5.43681" fill="#F1D9B5"/>
<path d="M50.1511 57.0863L63.1222 57.0865L60.1319 66.8728L47.3559 66.8727L50.1511 57.0863Z" fill="#32B088"/>
<rect x="27.5112" y="29.9023" width="10.3299" height="3.80577" fill="#F1D9B5"/>
<rect x="42.1909" y="29.9023" width="10.3299" height="3.80577" fill="#F1D9B5"/>
<rect x="56.8701" y="29.9023" width="10.3299" height="3.80577" fill="#F1D9B5"/>
<rect x="71.5498" y="29.9023" width="10.3299" height="3.80577" fill="#F1D9B5"/>
<rect x="86.229" y="29.9023" width="10.3299" height="3.80577" fill="#F1D9B5"/>
<path d="M39.0024 40.776C38.5236 49.0752 35.555 67.5886 27.5112 75.2494" stroke="#F1D9B5" stroke-width="0.478797" stroke-linecap="round"/>
<path d="M52.1692 40.776C51.6904 49.0752 49.5358 67.5886 42.5933 75.9676" stroke="#F1D9B5" stroke-width="0.478797" stroke-linecap="round"/>
<path d="M65.0964 40.776C64.6177 49.0752 62.4631 67.5886 55.5205 75.9676" stroke="#F1D9B5" stroke-width="0.478797" stroke-linecap="round"/>
<path d="M78.0242 40.776C77.5454 49.0752 75.3908 67.5886 68.4482 75.9676" stroke="#F1D9B5" stroke-width="0.478797" stroke-linecap="round"/>
<line x1="28.708" y1="47.2398" x2="85.6849" y2="47.2398" stroke="#F1D9B5" stroke-width="0.478797"/>
<line x1="28.708" y1="56.8157" x2="85.6849" y2="56.8157" stroke="#F1D9B5" stroke-width="0.478797"/>
<line x1="28.708" y1="66.8704" x2="85.6849" y2="66.8704" stroke="#F1D9B5" stroke-width="0.478797"/>
<path d="M25.8809 24.7374H101.724" stroke="#F1D9B5" stroke-width="0.543681"/>
<path fill-rule="evenodd" clip-rule="evenodd" d="M86.2286 66.8727C95.3868 66.8727 102.811 59.4486 102.811 50.2904C102.811 41.1323 95.3868 33.7082 86.2286 33.7082C77.0705 33.7082 69.6464 41.1323 69.6464 50.2904C69.6464 51.1497 69.7117 51.9937 69.8377 52.8178L63.938 58.7175L73.153 60.4896C76.1878 64.3748 80.9165 66.8727 86.2286 66.8727Z" fill="#32B088"/>
<path d="M77.5303 50.8342L83.1272 55.9223C83.3419 56.1175 83.6721 56.1097 83.8773 55.9044L96.8309 42.9508" stroke="white" stroke-width="2.17472" stroke-linecap="round"/>
<path d="M65.5693 57.1411L69.9188 52.7916C69.4657 49.7108 70.0275 42.2986 75.8993 37.2967C83.239 31.0444 92.2097 34.5783 94.3844 35.9375" stroke="#3BE2AD" stroke-width="0.543681" stroke-linecap="round"/>
<circle cx="38.9289" cy="12.5047" r="2.7184" fill="#FCFCFC"/>
<circle cx="49.8024" cy="12.5047" r="2.7184" fill="#FCFCFC"/>
<circle cx="82.423" cy="12.5047" r="2.7184" fill="#FCFCFC"/>
<circle cx="95.4718" cy="12.5047" r="2.7184" fill="#FCFCFC"/>
<g filter="url(#filter0_i_2646_1525)">
<path d="M39.5077 12.1647C39.6083 12.5051 39.4141 12.866 39.0654 12.9326C37.8946 13.1562 36.6805 13.0554 35.5564 12.6351C34.2308 12.1394 33.1024 11.2261 32.3413 10.033C31.5802 8.83997 31.2276 7.43176 31.3368 6.0208C31.446 4.60984 32.011 3.27265 32.9467 2.21088C33.8823 1.14911 35.1378 0.420349 36.5238 0.134503C37.9098 -0.151342 39.3511 0.0212281 40.6305 0.626188C41.9099 1.23115 42.9578 2.23569 43.6163 3.48832C44.1748 4.5506 44.4275 5.74245 44.353 6.93208C44.3308 7.28637 43.9972 7.52444 43.6468 7.4675C43.2964 7.41056 43.0627 7.07995 43.0763 6.72523C43.1114 5.81221 42.9071 4.90184 42.4785 4.08651C41.9497 3.0807 41.1082 2.2741 40.081 1.78834C39.0537 1.30258 37.8963 1.16401 36.7834 1.39354C35.6705 1.62306 34.6624 2.20822 33.9111 3.06078C33.1599 3.91333 32.7062 4.98705 32.6185 6.11999C32.5309 7.25293 32.8139 8.38367 33.4251 9.34166C34.0362 10.2997 34.9423 11.033 36.0066 11.431C36.8694 11.7536 37.7982 11.8418 38.6996 11.6921C39.0498 11.634 39.4072 11.8242 39.5077 12.1647Z" fill="#D9D9D9"/>
</g>
<g filter="url(#filter1_i_2646_1525)">
<path d="M51.4687 12.1647C51.5693 12.5051 51.375 12.866 51.0264 12.9326C49.8556 13.1562 48.6414 13.0554 47.5173 12.6351C46.1918 12.1394 45.0634 11.2261 44.3022 10.033C43.5411 8.83997 43.1886 7.43176 43.2978 6.0208C43.407 4.60984 43.972 3.27265 44.9076 2.21088C45.8432 1.14911 47.0987 0.420349 48.4847 0.134503C49.8707 -0.151342 51.3121 0.0212281 52.5914 0.626188C53.8708 1.23115 54.9188 2.23569 55.5773 3.48832C56.1357 4.5506 56.3884 5.74245 56.3139 6.93208C56.2917 7.28637 55.9581 7.52444 55.6078 7.4675C55.2574 7.41056 55.0237 7.07995 55.0373 6.72523C55.0723 5.81221 54.868 4.90184 54.4394 4.08651C53.9106 3.0807 53.0692 2.2741 52.0419 1.78834C51.0146 1.30258 49.8573 1.16401 48.7444 1.39354C47.6315 1.62306 46.6233 2.20822 45.8721 3.06078C45.1208 3.91333 44.6671 4.98705 44.5795 6.11999C44.4918 7.25293 44.7749 8.38367 45.386 9.34166C45.9972 10.2997 46.9032 11.033 47.9676 11.431C48.8303 11.7536 49.7592 11.8418 50.6605 11.6921C51.0107 11.634 51.3681 11.8242 51.4687 12.1647Z" fill="#D9D9D9"/>
</g>
<g filter="url(#filter2_i_2646_1525)">
<path d="M84.0893 12.1647C84.1899 12.5051 83.9957 12.866 83.647 12.9326C82.4762 13.1562 81.262 13.0554 80.1379 12.6351C78.8124 12.1394 77.684 11.2261 76.9228 10.033C76.1617 8.83997 75.8092 7.43176 75.9184 6.0208C76.0276 4.60984 76.5926 3.27265 77.5282 2.21088C78.4638 1.14911 79.7193 0.420349 81.1053 0.134503C82.4913 -0.151342 83.9327 0.0212281 85.212 0.626188C86.4914 1.23115 87.5394 2.23569 88.1979 3.48832C88.7563 4.5506 89.009 5.74245 88.9345 6.93208C88.9123 7.28637 88.5788 7.52444 88.2284 7.4675C87.878 7.41056 87.6443 7.07995 87.6579 6.72523C87.6929 5.81221 87.4886 4.90184 87.06 4.08651C86.5313 3.0807 85.6898 2.2741 84.6625 1.78834C83.6352 1.30258 82.4779 1.16401 81.365 1.39354C80.2521 1.62306 79.244 2.20822 78.4927 3.06078C77.7414 3.91333 77.2877 4.98705 77.2001 6.11999C77.1124 7.25293 77.3955 8.38367 78.0066 9.34166C78.6178 10.2997 79.5238 11.033 80.5882 11.431C81.4509 11.7536 82.3798 11.8418 83.2811 11.6921C83.6313 11.634 83.9887 11.8242 84.0893 12.1647Z" fill="#D9D9D9"/>
</g>
<g filter="url(#filter3_i_2646_1525)">
<path d="M97.1381 12.1647C97.2387 12.5051 97.0445 12.866 96.6958 12.9326C95.525 13.1562 94.3108 13.0554 93.1867 12.6351C91.8612 12.1394 90.7328 11.2261 89.9717 10.033C89.2106 8.83997 88.858 7.43176 88.9672 6.0208C89.0764 4.60984 89.6414 3.27265 90.577 2.21088C91.5126 1.14911 92.7681 0.420349 94.1541 0.134503C95.5401 -0.151342 96.9815 0.0212281 98.2609 0.626188C99.5402 1.23115 100.588 2.23569 101.247 3.48832C101.805 4.5506 102.058 5.74245 101.983 6.93208C101.961 7.28637 101.628 7.52444 101.277 7.4675C100.927 7.41056 100.693 7.07995 100.707 6.72523C100.742 5.81221 100.537 4.90184 100.109 4.08651C99.5801 3.0807 98.7386 2.2741 97.7113 1.78834C96.6841 1.30258 95.5267 1.16401 94.4138 1.39354C93.3009 1.62306 92.2928 2.20822 91.5415 3.06078C90.7903 3.91333 90.3366 4.98705 90.2489 6.11999C90.1612 7.25293 90.4443 8.38367 91.0554 9.34166C91.6666 10.2997 92.5727 11.033 93.637 11.431C94.4998 11.7536 95.4286 11.8418 96.33 11.6921C96.6802 11.634 97.0375 11.8242 97.1381 12.1647Z" fill="#D9D9D9"/>
</g>
<path d="M30.0189 22.3175C30.0913 22.1216 30.3684 22.1216 30.4408 22.3175L31.075 24.0313C31.0978 24.0929 31.1464 24.1414 31.2079 24.1642L32.9218 24.7984C33.1176 24.8709 33.1176 25.1479 32.9218 25.2204L31.2079 25.8545C31.1464 25.8773 31.0978 25.9259 31.075 25.9874L30.4408 27.7013C30.3684 27.8971 30.0913 27.8971 30.0189 27.7013L29.3847 25.9874C29.3619 25.9259 29.3134 25.8773 29.2518 25.8545L27.538 25.2204C27.3421 25.1479 27.3421 24.8709 27.538 24.7984L29.2518 24.1642C29.3134 24.1414 29.3619 24.0929 29.3847 24.0313L30.0189 22.3175Z" fill="white"/>
<path d="M71.3387 39.7153C71.4112 39.5194 71.6882 39.5194 71.7607 39.7153L72.3948 41.4291C72.4176 41.4907 72.4662 41.5393 72.5278 41.562L74.2416 42.1962C74.4374 42.2687 74.4374 42.5457 74.2416 42.6182L72.5278 43.2524C72.4662 43.2751 72.4176 43.3237 72.3948 43.3853L71.7607 45.0991C71.6882 45.295 71.4112 45.295 71.3387 45.0991L70.7045 43.3853C70.6817 43.3237 70.6332 43.2751 70.5716 43.2524L68.8578 42.6182C68.6619 42.5457 68.6619 42.2687 68.8578 42.1962L70.5716 41.562C70.6332 41.5393 70.6817 41.4907 70.7045 41.4291L71.3387 39.7153Z" fill="white"/>
<path d="M79.494 72.3361C79.5664 72.1403 79.8435 72.1403 79.9159 72.3361L80.5501 74.0499C80.5729 74.1115 80.6215 74.1601 80.683 74.1829L82.3969 74.817C82.5927 74.8895 82.5927 75.1665 82.3969 75.239L80.683 75.8732C80.6215 75.896 80.5729 75.9445 80.5501 76.0061L79.9159 77.7199C79.8435 77.9158 79.5664 77.9158 79.494 77.7199L78.8598 76.0061C78.837 75.9445 78.7885 75.896 78.7269 75.8732L77.0131 75.239C76.8172 75.1665 76.8172 74.8895 77.0131 74.817L78.7269 74.1829C78.7885 74.1601 78.837 74.1115 78.8598 74.0499L79.494 72.3361Z" fill="white"/>
<path d="M84.4928 71.5073C84.5291 71.4094 84.6676 71.4094 84.7038 71.5073L85.0209 72.3642C85.0323 72.395 85.0566 72.4193 85.0874 72.4307L85.9443 72.7478C86.0422 72.784 86.0422 72.9225 85.9443 72.9588L85.0874 73.2759C85.0566 73.2872 85.0323 73.3115 85.0209 73.3423L84.7038 74.1992C84.6676 74.2972 84.5291 74.2972 84.4928 74.1992L84.1757 73.3423C84.1644 73.3115 84.1401 73.2872 84.1093 73.2759L83.2524 72.9588C83.1544 72.9225 83.1544 72.784 83.2524 72.7478L84.1093 72.4307C84.1401 72.4193 84.1644 72.395 84.1757 72.3642L84.4928 71.5073Z" fill="white"/>
<defs>
<filter id="filter0_i_2646_1525" x="31.3174" y="3.05176e-05" width="13.0483" height="15.2231" filterUnits="userSpaceOnUse" color-interpolation-filters="sRGB">
<feFlood flood-opacity="0" result="BackgroundImageFix"/>
<feBlend mode="normal" in="SourceGraphic" in2="BackgroundImageFix" result="shape"/>
<feColorMatrix in="SourceAlpha" type="matrix" values="0 0 0 0 0 0 0 0 0 0 0 0 0 0 0 0 0 0 127 0" result="hardAlpha"/>
<feOffset dy="2.17472"/>
<feGaussianBlur stdDeviation="1.08736"/>
<feComposite in2="hardAlpha" operator="arithmetic" k2="-1" k3="1"/>
<feColorMatrix type="matrix" values="0 0 0 0 0.729167 0 0 0 0 0.455729 0 0 0 0 0.455729 0 0 0 0.13 0"/>
<feBlend mode="normal" in2="shape" result="effect1_innerShadow_2646_1525"/>
</filter>
<filter id="filter1_i_2646_1525" x="43.2783" y="3.05176e-05" width="13.0483" height="15.2231" filterUnits="userSpaceOnUse" color-interpolation-filters="sRGB">
<feFlood flood-opacity="0" result="BackgroundImageFix"/>
<feBlend mode="normal" in="SourceGraphic" in2="BackgroundImageFix" result="shape"/>
<feColorMatrix in="SourceAlpha" type="matrix" values="0 0 0 0 0 0 0 0 0 0 0 0 0 0 0 0 0 0 127 0" result="hardAlpha"/>
<feOffset dy="2.17472"/>
<feGaussianBlur stdDeviation="1.08736"/>
<feComposite in2="hardAlpha" operator="arithmetic" k2="-1" k3="1"/>
<feColorMatrix type="matrix" values="0 0 0 0 0.729167 0 0 0 0 0.455729 0 0 0 0 0.455729 0 0 0 0.13 0"/>
<feBlend mode="normal" in2="shape" result="effect1_innerShadow_2646_1525"/>
</filter>
<filter id="filter2_i_2646_1525" x="75.8989" y="3.05176e-05" width="13.0483" height="15.2231" filterUnits="userSpaceOnUse" color-interpolation-filters="sRGB">
<feFlood flood-opacity="0" result="BackgroundImageFix"/>
<feBlend mode="normal" in="SourceGraphic" in2="BackgroundImageFix" result="shape"/>
<feColorMatrix in="SourceAlpha" type="matrix" values="0 0 0 0 0 0 0 0 0 0 0 0 0 0 0 0 0 0 127 0" result="hardAlpha"/>
<feOffset dy="2.17472"/>
<feGaussianBlur stdDeviation="1.08736"/>
<feComposite in2="hardAlpha" operator="arithmetic" k2="-1" k3="1"/>
<feColorMatrix type="matrix" values="0 0 0 0 0.729167 0 0 0 0 0.455729 0 0 0 0 0.455729 0 0 0 0.13 0"/>
<feBlend mode="normal" in2="shape" result="effect1_innerShadow_2646_1525"/>
</filter>
<filter id="filter3_i_2646_1525" x="88.9478" y="3.05176e-05" width="13.0483" height="15.2231" filterUnits="userSpaceOnUse" color-interpolation-filters="sRGB">
<feFlood flood-opacity="0" result="BackgroundImageFix"/>
<feBlend mode="normal" in="SourceGraphic" in2="BackgroundImageFix" result="shape"/>
<feColorMatrix in="SourceAlpha" type="matrix" values="0 0 0 0 0 0 0 0 0 0 0 0 0 0 0 0 0 0 127 0" result="hardAlpha"/>
<feOffset dy="2.17472"/>
<feGaussianBlur stdDeviation="1.08736"/>
<feComposite in2="hardAlpha" operator="arithmetic" k2="-1" k3="1"/>
<feColorMatrix type="matrix" values="0 0 0 0 0.729167 0 0 0 0 0.455729 0 0 0 0 0.455729 0 0 0 0.13 0"/>
<feBlend mode="normal" in2="shape" result="effect1_innerShadow_2646_1525"/>
</filter>
</defs>
</svg>
